<svg id="Layer_1" data-name="Layer 1" xmlns="http://www.w3.org/2000/svg" viewBox="0 0 484 420.12"><defs><style>.cls-1,.cls-14{fill:#0578c6;}.cls-1{opacity:0.5;}.cls-2{fill:#939393;}.cls-3{fill:#c6c6c6;}.cls-4{fill:#011526;}.cls-5{fill:#076789;}.cls-6{fill:#eef915;}.cls-7{fill:#ccc;}.cls-8{fill:#077fd1;}.cls-9{fill:#ef1635;}.cls-10,.cls-13{fill:#084e87;}.cls-11{fill:#012642;}.cls-12{fill:#e5e5e5;}.cls-13{font-size:31.43px;font-family:OCRAExtended, OCR A Extended;}</style></defs><title>landingpage1</title><path class="cls-1" d="M29.84,346.59A170.5,170.5,0,0,1,7.31,271.8c-7-126.08,109-119.15,171.94-143.17,30.5-11.64,58.66-31.9,88.13-47.53,13.66-7.24,28.27-13.59,42.84-10.92,19.32,3.55,34.81,22,49.93,38.38a444.77,444.77,0,0,0,64.74,57.88c15.08,11,32.58,24.19,34.8,46.79,1.69,17.28-6.48,33.16-11,49.52a121.7,121.7,0,0,0-2.21,54c4.31,23,15.31,44.29,14.27,67.92a72.81,72.81,0,0,1-20.38,46.81c-11.1,11.34-24.63,17.74-38.23,22.24-39.41,13-80.66,11.42-121.19,7.84-53.86-4.76-108.06-13-159.16-36.1-27.26-12.32-53.84-29.15-75.2-54.77A168.56,168.56,0,0,1,29.84,346.59Z" transform="translate(-7 -44)"/><rect class="cls-2" x="133.16" y="128.55" width="228.8" height="196.33" rx="35.4"/><rect class="cls-3" x="130.84" y="324.88" width="233.45" height="18.5"/><rect class="cls-4" x="152.55" y="152.19" width="190.02" height="140.82"/><rect class="cls-5" x="223.65" y="332.07" width="51.19" height="4.11"/><rect class="cls-6" x="266.3" y="164.52" width="71.35" height="4.11"/><rect class="cls-7" x="211.24" y="171.72" width="29.47" height="8.22"/><rect class="cls-8" x="210.46" y="186.11" width="30.25" height="8.22"/><rect class="cls-6" x="209.69" y="202.56" width="46.54" height="7.2"/><rect class="cls-9" x="260.1" y="202.56" width="27.15" height="7.2"/><rect class="cls-10" x="208.91" y="215.92" width="46.54" height="7.2"/><rect class="cls-7" x="260.1" y="216.95" width="27.15" height="5.14"/><rect class="cls-7" x="243.81" y="188.17" width="27.15" height="5.14"/><rect class="cls-7" x="215.89" y="229.28" width="27.15" height="5.14"/><rect class="cls-8" x="305.86" y="185.08" width="30.25" height="8.22"/><rect class="cls-10" x="289.57" y="201.53" width="46.54" height="7.2"/><rect class="cls-6" x="289.57" y="214.89" width="46.54" height="7.2"/><rect class="cls-7" x="274.84" y="188.17" width="27.15" height="5.14"/><rect class="cls-6" x="246.92" y="229.28" width="56.62" height="7.2"/><rect class="cls-6" x="215.89" y="252.92" width="46.54" height="7.2"/><rect class="cls-10" x="215.89" y="240.59" width="46.54" height="7.2"/><rect class="cls-10" x="268.63" y="240.59" width="46.54" height="7.2"/><rect class="cls-6" x="307.41" y="229.28" width="27.92" height="7.2"/><rect class="cls-10" x="282.59" y="252.92" width="46.54" height="7.2"/><rect class="cls-11" x="152.29" y="152.19" width="39.55" height="140.82"/><rect class="cls-7" x="156.17" y="160.41" width="29.47" height="3.08"/><rect class="cls-7" x="156.17" y="166.58" width="29.47" height="3.08"/><rect class="cls-7" x="156.17" y="172.75" width="29.47" height="3.08"/><rect class="cls-7" x="156.17" y="177.89" width="29.47" height="3.08"/><rect class="cls-6" x="155.4" y="282.73" width="33.35" height="4.11"/><rect class="cls-9" x="155.4" y="274.51" width="18.61" height="4.11"/><rect class="cls-10" x="155.4" y="267.32" width="34.13" height="4.11"/><rect class="cls-12" x="12.09" y="64.38" width="119.71" height="96.58" rx="16.98"/><polygon class="cls-12" points="101.69 161.04 110.4 177.06 115.03 157.89 101.69 161.04"/><text class="cls-13" transform="translate(25.93 117.6) scale(0.71 1)">&lt;/CODE&gt;</text><ellipse class="cls-14" cx="27.99" cy="75.5" rx="4.34" ry="5.75"/><ellipse class="cls-14" cx="40.14" cy="75.5" rx="4.34" ry="5.75"/><ellipse class="cls-14" cx="52.28" cy="75.5" rx="4.34" ry="5.75"/><rect class="cls-12" x="371.29" y="116.05" width="119.71" height="96.58" rx="16.98" transform="translate(855.29 284.67) rotate(-180)"/><polygon class="cls-12" points="394.4 168.71 385.69 184.72 381.06 165.56 394.4 168.71"/><text class="cls-13" transform="translate(371.19 128.33) scale(0.62 1)">&lt;/DESIGN&gt;</text><ellipse class="cls-14" cx="446.12" cy="85.46" rx="4.34" ry="5.75"/><ellipse class="cls-14" cx="458.26" cy="85.46" rx="4.34" ry="5.75"/><ellipse class="cls-14" cx="470.41" cy="85.46" rx="4.34" ry="5.75"/><rect class="cls-12" x="207.04" y="44" width="119.71" height="96.58" rx="16.98" transform="translate(526.8 140.58) rotate(-180)"/><polygon class="cls-12" points="230.16 96.66 221.44 112.67 216.81 93.51 230.16 96.66"/><text class="cls-13" transform="translate(206.94 56.28) scale(0.62 1)">&lt;/PLAN&gt;</text><ellipse class="cls-14" cx="281.88" cy="13.41" rx="4.34" ry="5.75"/><ellipse class="cls-14" cx="294.02" cy="13.41" rx="4.34" ry="5.75"/><ellipse class="cls-14" cx="306.16" cy="13.41" rx="4.34" ry="5.75"/></svg>